<svg xmlns="http://www.w3.org/2000/svg" viewBox="0 0 15.73 15.74">
  <path
    d="M19.16,6.71a.94.94,0,0,0,.69-.28.91.91,0,0,0,.29-.68A1,1,0,0,0,19.85,5a.93.93,0,0,0-.69-.3H14.24A.94.94,0,0,0,14,4.06a.92.92,0,0,0-.7-.3h-2a1,1,0,0,0-.7.3.93.93,0,0,0-.28.68H5.39A.92.92,0,0,0,4.7,5a1,1,0,0,0-.29.71.91.91,0,0,0,.29.68,1,1,0,0,0,.69.28H19.16Zm-12.79,1a1,1,0,0,0-.7.3.94.94,0,0,0-.28.69v8.85A1.88,1.88,0,0,0,6,18.93a1.9,1.9,0,0,0,1.39.57H17.2a1.87,1.87,0,0,0,1.39-.58,1.91,1.91,0,0,0,.58-1.39V8.68A1,1,0,0,0,18.88,8a.89.89,0,0,0-.7-.29,1,1,0,0,0-.69.29.92.92,0,0,0-.29.68v7.87a1,1,0,0,1-1,1H8.34a.94.94,0,0,1-.69-.28,1,1,0,0,1-.29-.71V8.68a1,1,0,0,0-1-1Z"
    transform="translate(-4.41 -3.76)"
  />
</svg>