<svg xmlns="http://www.w3.org/2000/svg" viewBox="0 0 15.74 15.72">
  <path
    d="M19,18.32a4,4,0,0,0,0-5.68L15.85,9.5l-1.17,1.55L17.57,14a2,2,0,0,1,.61,1.47,2.08,2.08,0,0,1-2.09,2.09,2,2,0,0,1-1.47-.61l-.38-.37-1.74,1,.8.78a4,4,0,0,0,5.68,0ZM8,9.77a2,2,0,0,1-1.27-1,1.89,1.89,0,0,1-.21-1.57A2.1,2.1,0,0,1,7.45,6,2,2,0,0,1,9,5.76L12.27,7.2l.49-2L9.48,3.9a4,4,0,0,0-3.06.41A3.82,3.82,0,0,0,4.56,6.73a3.8,3.8,0,0,0,.4,3A3.78,3.78,0,0,0,7.39,11.6l5.38,2,.49-2-2.64-.94L8,9.77Z"
    transform="translate(-4.41 -3.76)"
  />
</svg>