<svg xmlns="http://www.w3.org/2000/svg" viewBox="0 0 15.74 15.73">
  <path
    d="M7.51,5.68h6l1.52-1.57H6.94a2.4,2.4,0,0,0-1.79.82A2.8,2.8,0,0,0,4.41,6.8V17a2.55,2.55,0,0,0,.75,1.8A2.48,2.48,0,0,0,7,19.5H17.22a2.57,2.57,0,0,0,1.83-.74,2.52,2.52,0,0,0,.77-1.8V8.83l-1.58,1.54v6a1.54,1.54,0,0,1-1.53,1.53H7.51A1.54,1.54,0,0,1,6,16.41V7.21A1.52,1.52,0,0,1,7.51,5.68Zm5.63,7.47h0L10.7,10.74l-1,3.38,1.71-.48,1.7-.49Zm.34-.34h0l5.36-5.32L16.4,5.08,11,10.4l1.23,1.21,1.21,1.2ZM19.93,6.4a.82.82,0,0,0,.22-.48A.54.54,0,0,0,20,5.47L18.45,4A.67.67,0,0,0,18,3.77a.7.7,0,0,0-.48.21l-.74.72,2.44,2.43.37-.37.35-.36Z"
    transform="translate(-4.41 -3.77)"
  />
</svg>